<?xml version="1.0" encoding="utf-8"?>
<!-- Generator: Adobe Illustrator 26.0.0, SVG Export Plug-In . SVG Version: 6.00 Build 0)  -->
<svg version="1.1" id="Layer_1" xmlns="http://www.w3.org/2000/svg" xmlns:xlink="http://www.w3.org/1999/xlink" x="0px" y="0px"
	 width="408.5px" height="166px" viewBox="0 0 408.5 166" style="enable-background:new 0 0 408.5 166;" xml:space="preserve">
<style type="text/css">
	.st0{fill:#69615F;}
	.st1{fill:#FF6D2D;}
</style>
<g>
	<g>
		<path class="st0" d="M207.8,165.7c-0.7,0.5-1.8,0.3-2.3-0.6l-3-5.2h-0.3v4.3c0,1-0.8,1.7-1.7,1.7s-1.6-0.8-1.6-1.7v-12.5
			c0-1,0.8-1.7,1.6-1.7h3.3c2.7,0,4.8,2.2,4.8,5c0,1.9-1,3.5-2.5,4.4l2.3,4.1C208.9,164.2,208.6,165.2,207.8,165.7z M203.8,153.4
			h-1.6v3h1.6c0.8,0,1.5-0.6,1.5-1.5C205.3,154.1,204.6,153.4,203.8,153.4z"/>
		<path class="st0" d="M217.8,165.9c-0.9,0-1.6-0.8-1.6-1.7v-12.6c0-0.9,0.7-1.7,1.6-1.7c0.9,0,1.6,0.8,1.6,1.7v12.6
			C219.5,165.2,218.8,165.9,217.8,165.9z"/>
		<path class="st0" d="M240,152.3l-4.8,12.5c-0.3,0.7-0.9,1.1-1.6,1.1s-1.3-0.4-1.5-1.1l-4.8-12.5c-0.4-0.9,0.1-1.9,0.9-2.2
			c0.9-0.3,1.8,0.1,2.2,1l3.3,8.5l3.3-8.5c0.4-0.9,1.3-1.3,2.2-1C239.9,150.4,240.3,151.4,240,152.3z"/>
		<path class="st0" d="M249.4,165.9c-0.9,0-1.6-0.8-1.6-1.7v-12.6c0-0.9,0.7-1.7,1.6-1.7s1.6,0.8,1.6,1.7v12.6
			C251,165.2,250.3,165.9,249.4,165.9z"/>
		<path class="st0" d="M267.6,164.2c0,0.9-0.8,1.7-1.6,1.7h-5.2c-0.9,0-1.7-0.8-1.7-1.7v-12.6c0-0.9,0.8-1.7,1.7-1.7h5.2
			c0.9,0,1.6,0.8,1.6,1.7c0,1-0.8,1.8-1.6,1.8h-3.5v3h3.3c0.8,0,1.5,0.7,1.5,1.5s-0.6,1.5-1.5,1.5h-3.3v3h3.5
			C266.9,162.5,267.6,163.3,267.6,164.2z"/>
		<path class="st0" d="M284.4,165.7c-0.7,0.5-1.8,0.3-2.3-0.6l-3-5.2h-0.3v4.3c0,1-0.8,1.7-1.7,1.7c-0.9,0-1.6-0.8-1.6-1.7v-12.5
			c0-1,0.8-1.7,1.6-1.7h3.3c2.7,0,4.8,2.2,4.8,5c0,1.9-1,3.5-2.5,4.4l2.3,4.1C285.5,164.2,285.2,165.2,284.4,165.7z M280.5,153.4
			h-1.6v3h1.6c0.8,0,1.5-0.6,1.5-1.5C281.9,154.1,281.3,153.4,280.5,153.4z"/>
		<path class="st0" d="M305.7,165.8c-0.7,0.4-1.8,0.1-2.2-0.9l-0.7-1.7h-6.4l-0.8,1.7c-0.4,1-1.5,1.2-2.2,0.9
			c-0.8-0.4-1.2-1.4-0.8-2.3L298,151c0.2-0.4,0.5-0.7,0.9-0.9s0.9-0.2,1.4,0c0.4,0.2,0.7,0.5,0.9,0.9l5.4,12.5
			C307,164.4,306.6,165.4,305.7,165.8z M301.3,159.8l-1.7-3.9l-1.7,3.9H301.3z"/>
		<path class="st0" d="M342.1,151.7v12.5c0,1-0.8,1.7-1.7,1.7c-0.9,0-1.7-0.8-1.7-1.7v-6.1l-3,6.4c-0.3,0.6-0.8,0.9-1.3,0.9
			s-1.1-0.3-1.3-0.9l-3-6.4v6.1c0,1-0.8,1.7-1.7,1.7c-0.9,0-1.6-0.8-1.6-1.7v-12.5c0-1,0.8-1.7,1.6-1.7c0.9,0,1.4,0.6,1.7,1.3
			c0.1,0.3,2.7,5.7,4.3,9.2c1.6-3.4,4.2-8.9,4.3-9.2c0.3-0.7,0.8-1.3,1.7-1.3C341.4,149.9,342.1,150.7,342.1,151.7z"/>
		<path class="st0" d="M363.1,165.8c-0.7,0.4-1.8,0.1-2.2-0.9l-0.7-1.7h-6.4l-0.8,1.7c-0.4,1-1.5,1.2-2.2,0.9
			c-0.8-0.4-1.2-1.4-0.8-2.3l5.4-12.5c0.2-0.4,0.5-0.7,0.9-0.9s0.9-0.2,1.4,0c0.4,0.2,0.7,0.5,0.9,0.9l5.4,12.5
			C364.3,164.4,363.9,165.4,363.1,165.8z M358.7,159.8l-1.7-3.9l-1.7,3.9H358.7z"/>
		<path class="st0" d="M380.3,152.7l-3.6,5.3v6.3c0,0.9-0.8,1.7-1.7,1.7c-0.9,0-1.6-0.8-1.6-1.7V158l-3.6-5.3
			c-0.5-0.8-0.4-1.8,0.4-2.4c0.8-0.5,1.8-0.4,2.3,0.4l2.5,3.7l2.5-3.7c0.5-0.8,1.5-1,2.3-0.4C380.6,150.8,380.8,151.9,380.3,152.7z"
			/>
		<path class="st0" d="M399.1,165.8c-0.7,0.4-1.8,0.1-2.2-0.9l-0.7-1.7h-6.5l-0.8,1.7c-0.4,1-1.5,1.2-2.2,0.9
			c-0.8-0.4-1.2-1.4-0.8-2.3l5.4-12.5c0.2-0.4,0.5-0.7,0.9-0.9s0.9-0.2,1.4,0c0.4,0.2,0.7,0.5,0.9,0.9l5.4,12.5
			C400.3,164.4,399.9,165.4,399.1,165.8z M394.6,159.8l-1.7-3.9l-1.7,3.9H394.6z"/>
	</g>
	<g>
		<g>
			<path class="st1" d="M24,19.1c-5.3,0-10.3,2.2-13.7,5.8c-3.5,3.5-5.7,8.5-5.7,13.9v17.9h14.7v-7.8V39c0-2.1,0.5-4,1.4-5.4
				s2-2.2,3.3-2.2s2.4,0.8,3.3,2.2c0.9,1.4,1.4,3.3,1.4,5.4v17.6h14.8V38.7c0-5.4-2.2-10.4-5.7-13.9C34.2,21.3,29.3,19.1,24,19.1"/>
			<path class="st1" d="M377.2,19.1c-5.3,0-10.2,2.2-13.8,5.8c-3.5,3.5-5.7,8.5-5.7,13.9v17.9h14.7v-7.8V39c0-2.1,0.5-4,1.4-5.4
				s2-2.2,3.3-2.2s2.4,0.8,3.3,2.2c0.9,1.4,1.4,3.3,1.4,5.4v17.6h14.9V38.7c0-5.4-2.2-10.4-5.7-13.9
				C387.5,21.3,382.6,19.1,377.2,19.1"/>
			<path class="st1" d="M59.3,14.3c1.5-1.5,2.4-3.6,2.4-5.9S60.8,4,59.3,2.5s-3.5-2.4-5.8-2.4S49.2,1,47.7,2.5s-2.4,3.6-2.4,5.9
				s0.9,4.4,2.4,5.9l1.8,1.8c3,3.1,3.2,3.9,0.4,6.8l-1.6,1.7c-1.4,1.4-2.2,3.2-2.2,5.3v26.8H61V29.9c0-2.1-0.8-4-2.2-5.3l-1.6-1.7
				c-2.9-2.9-2.7-3.7,0.4-6.8L59.3,14.3z"/>
			<path class="st1" d="M85.8,45c-0.9,1.6-2,2.6-3.3,2.6s-2.4-1-3.3-2.6s-1.4-3.8-1.4-6.2c0-2.5,0.5-4.6,1.4-6.2s2-2.6,3.3-2.6
				s2.4,1,3.3,2.6c0.6,1.2,1.1,2.7,1.3,4.4h14.8c-0.4-4.7-2.5-8.9-5.6-12c-3.5-3.5-8.4-5.7-13.7-5.7c-5.4,0-10.3,2.2-13.8,5.7
				s-5.7,8.5-5.7,13.9s2.2,10.4,5.7,13.9c2.7,2.7,7.4,5.8,13.8,5.8c4.8,0,9.2-1.8,12.6-4.7c2.5-2.1,6.1-6.4,6.8-13.1H87.2
				C86.8,42.3,86.4,43.8,85.8,45"/>
			<path class="st1" d="M158.4,19.1c-5.3,0-10.3,2.2-13.7,5.7c-3.5,3.5-5.7,8.5-5.7,13.9s2.2,10.4,5.7,13.9
				c3.4,3.4,8.2,5.8,13.8,5.8c5.8,0,10.5-2.6,13.8-5.9c4.1-4.7,4.3-9.7,4.3-9.7h-13.2c0,0-1.8,4.6-5,4.6c-1.3,0-2.4-1-3.3-2.6
				c-0.6-1.1-1-2.5-1.2-4h22.9c0,0,1.6-9.4-4.7-15.8C168.4,21.2,163.8,19.1,158.4,19.1 M154.1,35.2c0.3-1.2,0.6-2.2,1-2.9
				c0.6-1.4,2-2.6,3.3-2.6s2.4,0.9,3.3,2.6c0.4,0.7,0.8,2,0.9,2.8L154.1,35.2z"/>
			<path class="st1" d="M296.5,19.1c-5.3,0-10.2,2.2-13.7,5.7s-5.7,8.5-5.7,13.9s2.2,10.4,5.7,13.9c3.4,3.4,8.2,5.8,13.8,5.8
				c5.8,0,10.6-2.6,13.8-5.9c4.1-4.7,4.3-9.7,4.3-9.7h-13.2c0,0-1.8,4.6-5,4.6c-1.3,0-2.4-1-3.3-2.6c-0.6-1.1-1-2.5-1.2-4h22.9
				c0,0,1.6-9.4-4.7-15.8C306.6,21.2,302,19.1,296.5,19.1 M292.3,35.2c0.3-1.2,0.6-2.2,1-2.9c0.7-1.4,2-2.6,3.3-2.6s2.4,0.9,3.3,2.6
				c0.4,0.7,0.8,2,0.9,2.8L292.3,35.2z"/>
			<path class="st1" d="M186.3,0c-4.1,0-7.4,3.4-7.4,7.5v49.2h14.8V7.5C193.6,3.4,190.3,0,186.3,0"/>
			<path class="st1" d="M215.1,19.1c-10.7,0-19.4,8.8-19.4,19.6c0,10.9,8.7,19.6,19.4,19.6s19.4-8.8,19.4-19.6
				C234.6,27.9,225.9,19.1,215.1,19.1 M215.1,47.6c-2.6,0-4.7-4-4.7-8.9s2.1-8.8,4.7-8.8c2.6,0,4.7,4,4.7,8.8
				C219.8,43.6,217.7,47.6,215.1,47.6"/>
			<path class="st1" d="M336.5,19.1c-10.7,0-19.4,8.8-19.4,19.6c0,10.9,8.7,19.6,19.4,19.6c10.7,0,19.4-8.8,19.4-19.6
				C356,27.9,347.3,19.1,336.5,19.1 M336.5,47.6c-2.6,0-4.7-4-4.7-8.9s2.1-8.8,4.7-8.8s4.7,4,4.7,8.8
				C341.2,43.6,339.1,47.6,336.5,47.6"/>
			<path class="st1" d="M275.2,38.7L275.2,38.7V7.5c0-4.1-3.3-7.5-7.4-7.5s-7.4,3.4-7.4,7.5v12.2c-1.5-0.4-3.1-0.6-4.7-0.6
				c-5.3,0-10.2,2.2-13.8,5.7c-3.5,3.5-5.7,8.5-5.7,13.9s2.2,10.4,5.7,13.9l0,0c2.3,2.3,7.1,5.8,13.8,5.8c6.7,0,11.5-3.5,13.8-5.8
				C273.1,49.1,275.2,44.2,275.2,38.7L275.2,38.7z M255.8,47.6c-2.6,0-4.7-4-4.7-8.9s2.1-8.8,4.7-8.8s4.7,4,4.7,8.8
				C260.5,43.6,258.4,47.6,255.8,47.6"/>
			<path class="st1" d="M141.1,54.1c0-0.5-0.1-0.9-0.4-1.4l-8.1-12.3l5.6-10.3c2.1-3.5,0.9-8.1-2.6-10.2s-8-0.9-10.1,2.6l-6.7,12.1
				v-8c0-4.1-3.3-7.5-7.4-7.5s-7.4,3.3-7.4,7.5v30.1h14.8V44.9l7.8,11.8h11.9C140,56.7,141.1,55.5,141.1,54.1"/>
		</g>
		<g>
			<g>
				<path class="st0" d="M20.5,75.7v21.9c0,1-0.7,1.7-1.6,1.7c-0.9,0-1.7-0.8-1.7-1.7V88H7.5v9.6c0,1-0.7,1.7-1.7,1.7
					c-0.9,0-1.6-0.8-1.6-1.7V75.7c0-1,0.7-1.7,1.6-1.7s1.7,0.8,1.7,1.7v9.6h9.7v-9.6c0-1,0.7-1.7,1.7-1.7
					C19.8,74,20.5,74.7,20.5,75.7z"/>
				<path class="st0" d="M56.4,86.6c0,7.1-5.6,12.9-12.4,12.9c-6.9,0-12.5-5.8-12.5-12.9c0-7.1,5.6-12.9,12.5-12.9
					C50.8,73.7,56.4,79.5,56.4,86.6z M34.8,86.6c0,5.3,4.1,9.5,9.2,9.5c5,0,9.1-4.3,9.1-9.5S49,77.1,44,77.1
					C38.9,77.1,34.8,81.4,34.8,86.6z"/>
				<path class="st0" d="M81.5,75.7c0,1-0.7,1.7-1.7,1.7h-4.1v20.2c0,1-0.7,1.7-1.7,1.7c-0.9,0-1.7-0.8-1.7-1.7V77.4h-4.1
					c-0.9,0-1.7-0.8-1.7-1.7c0-1,0.7-1.7,1.7-1.7h11.5C80.8,74,81.5,74.7,81.5,75.7z"/>
				<path class="st0" d="M104.6,97.6c0,1-0.8,1.7-1.7,1.7h-9.1c-0.9,0-1.7-0.8-1.7-1.7V75.7c0-1,0.7-1.7,1.7-1.7h9.1
					c0.9,0,1.7,0.8,1.7,1.7c0,1-0.8,1.7-1.7,1.7h-7.4v7.9h7.1c0.7,0,1.3,0.6,1.3,1.4s-0.6,1.4-1.3,1.4h-7.1V96h7.4
					C103.8,95.9,104.6,96.6,104.6,97.6z"/>
				<path class="st0" d="M126.7,99.3h-9.2c-0.9,0-1.7-0.8-1.7-1.7V75.7c0-1,0.7-1.7,1.7-1.7c0.9,0,1.7,0.8,1.7,1.7v20.2h7.5
					c0.9,0,1.7,0.8,1.7,1.7C128.3,98.6,127.6,99.3,126.7,99.3z"/>
				<path class="st0" d="M144.5,99.5c-1.7,0-3.8-0.6-5.2-1.6c-0.8-0.5-1-1.6-0.5-2.4c0.5-0.8,1.6-1,2.3-0.5c0.9,0.6,2.5,1.1,3.6,1
					c4.2-0.3,5.4-6,1.8-7.8c-1.6-0.8-3.9-1-5.6-2.8c-5.8-6.1,1.7-14.6,9.2-10.7c0.8,0.4,1,1.5,0.6,2.3c-0.5,0.8-1.5,1.1-2.3,0.6
					c-2.3-1.5-6.3-0.1-6.3,3c0,3.3,3.7,3.4,6,4.6c4.3,2.3,5.1,7.9,2.2,11.5C148.3,99.1,145.9,99.5,144.5,99.5z"/>
				<path class="st0" d="M197.6,89.4l-2.3,5l1.8,2.2c0.5,0.7,0.5,1.6-0.2,2.2c-0.7,0.7-1.6,0.4-2.1-0.2l-1.2-1.5
					c-1.4,1.5-3.4,2.4-5.5,2.4c-4.2,0-7.6-3.6-7.6-7.9c0-2.7,1.3-5.1,3.4-6.6c-1.3-1.2-2.1-2.9-2.1-4.8c0-3.6,2.8-6.5,6.3-6.5
					s6.3,2.9,6.3,6.5c0,3.3-2.3,6-5.4,6.5l4.2,5.1L195,88c0.4-0.8,1.2-1.1,2-0.7C197.7,87.8,198,88.7,197.6,89.4z M191.7,94.8
					l-6-7.3c-1.4,0.9-2.3,2.4-2.3,4.2c0,2.7,2.1,4.8,4.7,4.8C189.5,96.5,190.8,95.9,191.7,94.8z M184.7,80.3c0,1.9,1.5,3.5,3.4,3.5
					s3.4-1.6,3.4-3.5s-1.5-3.5-3.4-3.5S184.7,78.4,184.7,80.3z"/>
				<path class="st0" d="M240.1,99c-0.7,0.4-1.7,0.4-2.3-0.5l-6-9.8h-2.1v8.9c0,1-0.7,1.7-1.6,1.7c-0.9,0-1.7-0.8-1.7-1.7V75.7
					c0-0.9,0.7-1.7,1.6-1.7h5.7c3.9,0,7.1,3.3,7.1,7.4c0,3.4-2.3,6.3-5.3,7.1l5,8.2C241.1,97.5,240.9,98.6,240.1,99z M229.8,85.3h4
					c2.1,0,3.8-1.7,3.8-3.9s-1.7-3.9-3.8-3.9h-4V85.3z"/>
				<path class="st0" d="M264,97.6c0,1-0.8,1.7-1.7,1.7h-9.1c-0.9,0-1.7-0.8-1.7-1.7V75.7c0-1,0.7-1.7,1.7-1.7h9.1
					c0.9,0,1.7,0.8,1.7,1.7c0,1-0.8,1.7-1.7,1.7h-7.4v7.9h7.1c0.7,0,1.3,0.6,1.3,1.4s-0.6,1.4-1.3,1.4h-7.1V96h7.4
					C263.2,95.9,264,96.6,264,97.6z"/>
				<path class="st0" d="M280.7,99.5c-1.7,0-3.8-0.6-5.2-1.6c-0.8-0.5-1-1.6-0.5-2.4c0.5-0.8,1.6-1,2.3-0.5c0.9,0.6,2.5,1.1,3.6,1
					c4.2-0.3,5.4-6,1.8-7.8c-1.6-0.8-3.9-1-5.6-2.8c-5.8-6.1,1.7-14.6,9.2-10.7c0.8,0.4,1,1.5,0.6,2.3c-0.5,0.8-1.5,1.1-2.3,0.6
					c-2.3-1.5-6.3-0.1-6.3,3c0,3.3,3.7,3.4,6,4.6c4.3,2.3,5.1,7.9,2.2,11.5C284.4,99.1,282,99.5,280.7,99.5z"/>
				<path class="st0" d="M323.7,86.6c0,7.1-5.6,12.9-12.4,12.9c-6.9,0-12.5-5.8-12.5-12.9c0-7.1,5.6-12.9,12.5-12.9
					C318.1,73.7,323.7,79.5,323.7,86.6z M302.1,86.6c0,5.3,4.1,9.5,9.2,9.5c5,0,9.1-4.3,9.1-9.5s-4.1-9.5-9.1-9.5
					S302.1,81.4,302.1,86.6z"/>
				<path class="st0" d="M348.5,99c-0.7,0.4-1.7,0.4-2.3-0.5l-6-9.8h-2.1v8.9c0,1-0.7,1.7-1.6,1.7s-1.7-0.8-1.7-1.7V75.7
					c0-0.9,0.7-1.7,1.6-1.7h5.7c3.9,0,7.1,3.3,7.1,7.4c0,3.4-2.2,6.3-5.3,7.1l5,8.2C349.5,97.5,349.3,98.6,348.5,99z M338.2,85.3h4
					c2.1,0,3.8-1.7,3.8-3.9s-1.7-3.9-3.8-3.9h-4V85.3z"/>
				<path class="st0" d="M374,75.7c0,1-0.7,1.7-1.7,1.7h-4.1v20.2c0,1-0.7,1.7-1.7,1.7c-0.9,0-1.7-0.8-1.7-1.7V77.4h-4.1
					c-0.9,0-1.7-0.8-1.7-1.7c0-1,0.7-1.7,1.7-1.7h11.5C373.2,74,374,74.7,374,75.7z"/>
				<path class="st0" d="M390,99.5c-1.7,0-3.8-0.6-5.2-1.6c-0.8-0.5-1-1.6-0.5-2.4c0.5-0.8,1.6-1,2.3-0.5c0.9,0.6,2.5,1.1,3.6,1
					c4.2-0.3,5.4-6,1.8-7.8c-1.6-0.8-3.9-1-5.6-2.8c-5.8-6.1,1.7-14.6,9.2-10.7c0.8,0.4,1,1.5,0.6,2.3c-0.5,0.8-1.5,1.1-2.3,0.6
					c-2.4-1.5-6.3-0.1-6.3,3c0,3.3,3.7,3.4,6,4.6c4.3,2.3,5.1,7.9,2.2,11.5C393.7,99.1,391.3,99.5,390,99.5z"/>
			</g>
			<g>
				<path class="st0" d="M20.5,75.7v21.9c0,1-0.7,1.7-1.6,1.7c-0.9,0-1.7-0.8-1.7-1.7V88H7.5v9.6c0,1-0.7,1.7-1.7,1.7
					c-0.9,0-1.6-0.8-1.6-1.7V75.7c0-1,0.7-1.7,1.6-1.7s1.7,0.8,1.7,1.7v9.6h9.7v-9.6c0-1,0.7-1.7,1.7-1.7
					C19.8,74,20.5,74.7,20.5,75.7z"/>
				<path class="st0" d="M56.4,86.6c0,7.1-5.6,12.9-12.4,12.9c-6.9,0-12.5-5.8-12.5-12.9c0-7.1,5.6-12.9,12.5-12.9
					C50.8,73.7,56.4,79.5,56.4,86.6z M34.8,86.6c0,5.3,4.1,9.5,9.2,9.5c5,0,9.1-4.3,9.1-9.5S49,77.1,44,77.1
					C38.9,77.1,34.8,81.4,34.8,86.6z"/>
				<path class="st0" d="M81.5,75.7c0,1-0.7,1.7-1.7,1.7h-4.1v20.2c0,1-0.7,1.7-1.7,1.7c-0.9,0-1.7-0.8-1.7-1.7V77.4h-4.1
					c-0.9,0-1.7-0.8-1.7-1.7c0-1,0.7-1.7,1.7-1.7h11.5C80.8,74,81.5,74.7,81.5,75.7z"/>
				<path class="st0" d="M104.6,97.6c0,1-0.8,1.7-1.7,1.7h-9.1c-0.9,0-1.7-0.8-1.7-1.7V75.7c0-1,0.7-1.7,1.7-1.7h9.1
					c0.9,0,1.7,0.8,1.7,1.7c0,1-0.8,1.7-1.7,1.7h-7.4v7.9h7.1c0.7,0,1.3,0.6,1.3,1.4s-0.6,1.4-1.3,1.4h-7.1V96h7.4
					C103.8,95.9,104.6,96.6,104.6,97.6z"/>
				<path class="st0" d="M126.7,99.3h-9.2c-0.9,0-1.7-0.8-1.7-1.7V75.7c0-1,0.7-1.7,1.7-1.7c0.9,0,1.7,0.8,1.7,1.7v20.2h7.5
					c0.9,0,1.7,0.8,1.7,1.7C128.3,98.6,127.6,99.3,126.7,99.3z"/>
				<path class="st0" d="M144.5,99.5c-1.7,0-3.8-0.6-5.2-1.6c-0.8-0.5-1-1.6-0.5-2.4c0.5-0.8,1.6-1,2.3-0.5c0.9,0.6,2.5,1.1,3.6,1
					c4.2-0.3,5.4-6,1.8-7.8c-1.6-0.8-3.9-1-5.6-2.8c-5.8-6.1,1.7-14.6,9.2-10.7c0.8,0.4,1,1.5,0.6,2.3c-0.5,0.8-1.5,1.1-2.3,0.6
					c-2.3-1.5-6.3-0.1-6.3,3c0,3.3,3.7,3.4,6,4.6c4.3,2.3,5.1,7.9,2.2,11.5C148.3,99.1,145.9,99.5,144.5,99.5z"/>
				<path class="st0" d="M197.6,89.4l-2.3,5l1.8,2.2c0.5,0.7,0.5,1.6-0.2,2.2c-0.7,0.7-1.6,0.4-2.1-0.2l-1.2-1.5
					c-1.4,1.5-3.4,2.4-5.5,2.4c-4.2,0-7.6-3.6-7.6-7.9c0-2.7,1.3-5.1,3.4-6.6c-1.3-1.2-2.1-2.9-2.1-4.8c0-3.6,2.8-6.5,6.3-6.5
					s6.3,2.9,6.3,6.5c0,3.3-2.3,6-5.4,6.5l4.2,5.1L195,88c0.4-0.8,1.2-1.1,2-0.7C197.7,87.8,198,88.7,197.6,89.4z M191.7,94.8
					l-6-7.3c-1.4,0.9-2.3,2.4-2.3,4.2c0,2.7,2.1,4.8,4.7,4.8C189.5,96.5,190.8,95.9,191.7,94.8z M184.7,80.3c0,1.9,1.5,3.5,3.4,3.5
					s3.4-1.6,3.4-3.5s-1.5-3.5-3.4-3.5S184.7,78.4,184.7,80.3z"/>
				<path class="st0" d="M240.1,99c-0.7,0.4-1.7,0.4-2.3-0.5l-6-9.8h-2.1v8.9c0,1-0.7,1.7-1.6,1.7c-0.9,0-1.7-0.8-1.7-1.7V75.7
					c0-0.9,0.7-1.7,1.6-1.7h5.7c3.9,0,7.1,3.3,7.1,7.4c0,3.4-2.3,6.3-5.3,7.1l5,8.2C241.1,97.5,240.9,98.6,240.1,99z M229.8,85.3h4
					c2.1,0,3.8-1.7,3.8-3.9s-1.7-3.9-3.8-3.9h-4V85.3z"/>
				<path class="st0" d="M264,97.6c0,1-0.8,1.7-1.7,1.7h-9.1c-0.9,0-1.7-0.8-1.7-1.7V75.7c0-1,0.7-1.7,1.7-1.7h9.1
					c0.9,0,1.7,0.8,1.7,1.7c0,1-0.8,1.7-1.7,1.7h-7.4v7.9h7.1c0.7,0,1.3,0.6,1.3,1.4s-0.6,1.4-1.3,1.4h-7.1V96h7.4
					C263.2,95.9,264,96.6,264,97.6z"/>
				<path class="st0" d="M280.7,99.5c-1.7,0-3.8-0.6-5.2-1.6c-0.8-0.5-1-1.6-0.5-2.4c0.5-0.8,1.6-1,2.3-0.5c0.9,0.6,2.5,1.1,3.6,1
					c4.2-0.3,5.4-6,1.8-7.8c-1.6-0.8-3.9-1-5.6-2.8c-5.8-6.1,1.7-14.6,9.2-10.7c0.8,0.4,1,1.5,0.6,2.3c-0.5,0.8-1.5,1.1-2.3,0.6
					c-2.3-1.5-6.3-0.1-6.3,3c0,3.3,3.7,3.4,6,4.6c4.3,2.3,5.1,7.9,2.2,11.5C284.4,99.1,282,99.5,280.7,99.5z"/>
				<path class="st0" d="M323.7,86.6c0,7.1-5.6,12.9-12.4,12.9c-6.9,0-12.5-5.8-12.5-12.9c0-7.1,5.6-12.9,12.5-12.9
					C318.1,73.7,323.7,79.5,323.7,86.6z M302.1,86.6c0,5.3,4.1,9.5,9.2,9.5c5,0,9.1-4.3,9.1-9.5s-4.1-9.5-9.1-9.5
					S302.1,81.4,302.1,86.6z"/>
				<path class="st0" d="M348.5,99c-0.7,0.4-1.7,0.4-2.3-0.5l-6-9.8h-2.1v8.9c0,1-0.7,1.7-1.6,1.7s-1.7-0.8-1.7-1.7V75.7
					c0-0.9,0.7-1.7,1.6-1.7h5.7c3.9,0,7.1,3.3,7.1,7.4c0,3.4-2.2,6.3-5.3,7.1l5,8.2C349.5,97.5,349.3,98.6,348.5,99z M338.2,85.3h4
					c2.1,0,3.8-1.7,3.8-3.9s-1.7-3.9-3.8-3.9h-4V85.3z"/>
				<path class="st0" d="M374,75.7c0,1-0.7,1.7-1.7,1.7h-4.1v20.2c0,1-0.7,1.7-1.7,1.7c-0.9,0-1.7-0.8-1.7-1.7V77.4h-4.1
					c-0.9,0-1.7-0.8-1.7-1.7c0-1,0.7-1.7,1.7-1.7h11.5C373.2,74,374,74.7,374,75.7z"/>
				<path class="st0" d="M390,99.5c-1.7,0-3.8-0.6-5.2-1.6c-0.8-0.5-1-1.6-0.5-2.4c0.5-0.8,1.6-1,2.3-0.5c0.9,0.6,2.5,1.1,3.6,1
					c4.2-0.3,5.4-6,1.8-7.8c-1.6-0.8-3.9-1-5.6-2.8c-5.8-6.1,1.7-14.6,9.2-10.7c0.8,0.4,1,1.5,0.6,2.3c-0.5,0.8-1.5,1.1-2.3,0.6
					c-2.4-1.5-6.3-0.1-6.3,3c0,3.3,3.7,3.4,6,4.6c4.3,2.3,5.1,7.9,2.2,11.5C393.7,99.1,391.3,99.5,390,99.5z"/>
			</g>
		</g>
		<path class="st0" d="M401.5,120.6c0-2.5-2-4.5-4.4-4.5S4.4,116.2,4.4,116.2c-2.4,0-4.4,2-4.4,4.5s2,4.5,4.4,4.5h255.9
			c7.1,0.2,12.6,0.7,14.7,1.5c1.4,0.5,2.7,1.3,4.2,2.1c2.5,1.4,5.3,3,8.6,3.6c5.8,1,11.7,0,17.5-3c4.2-2.2,7-3.5,11.3-3.6
			c5.7-0.1,10.8,1.5,17.4,5.6c5.8,3.6,12.5,7,19.7,7c1.5,0,3.1-0.2,4.6-0.5c4.1-0.9,8.4-3.6,12.5-6.2c2.9-1.9,6-3.8,8.2-4.5
			c3.9-1.2,5.8-1.8,7.4-2.1h10.4c0.6,0,1.3-0.2,1.8-0.4C400.3,124.1,401.5,122.5,401.5,120.6"/>
	</g>
</g>
<g>
	<path class="st1" d="M399.8,52.4h-1.5v-0.8h3.9v0.8h-1.5v4.2h-0.9V52.4z M403.3,51.5h0.2l2.4,2.7l2.4-2.7h0.2v5h-0.9v-3.1l-1.6,1.9
		h-0.2l-1.6-1.9v3.1h-0.9V51.5z"/>
</g>
</svg>
